Coordinates
version=1
nRows=16
nColumns=40
inDegrees=yes

Units are S.I. units (second, meters, Newtons, ...)
Angles are in degrees.

endheader
time	pelvis_tilt	pelvis_list	pelvis_rotation	pelvis_tx	pelvis_ty	pelvis_tz	hip_flexion_r	hip_adduction_r	hip_rotation_r	knee_angle_r	knee_angle_r_beta	ankle_angle_r	subtalar_angle_r	mtp_angle_r	hip_flexion_l	hip_adduction_l	hip_rotation_l	knee_angle_l	knee_angle_l_beta	ankle_angle_l	subtalar_angle_l	mtp_angle_l	lumbar_extension	lumbar_bending	lumbar_rotation	arm_flex_r	arm_add_r	arm_rot_r	elbow_flex_r	pro_sup_r	wrist_flex_r	wrist_dev_r	arm_flex_l	arm_add_l	arm_rot_l	elbow_flex_l	pro_sup_l	wrist_flex_l	wrist_dev_l
     54.01500000	     -6.87558612	     -7.92639221	      1.86170882	      0.94871241	      0.91207200	      0.49145839	     -0.64707819	      6.63881277	    -17.80515910	      8.15210199	      8.15210199	     17.47588116	      7.51324255	     -2.56839193	     37.83232011	    -10.69868981	      2.67638101	     20.81061395	     20.81061395	      5.14227496	     -9.21271045	     12.67229759	    -10.12509096	      6.18833432	      5.38719434	     47.83541326	    -15.21275484	      3.58654906	     99.89764739	     44.31484689	      0.00000000	      0.00000000	    -17.02758292	     -7.52640858	     11.50182390	     30.68808531	     44.08045228	      0.00000000	      0.00000000
     54.02607143	     -6.96539502	     -7.82925193	      1.53551649	      0.95102707	      0.91027026	      0.49002966	     -1.25006932	      6.40712557	    -17.41665295	      8.22989052	      8.22989052	     18.02531379	      7.56471235	     -2.60410342	     37.48803547	    -10.70314230	      1.81433138	     20.94677313	     20.94677313	      4.52086459	     -9.81308377	     12.74665778	     -9.65340962	      6.04773489	      5.63301212	     49.37533489	    -14.98265224	      3.54881378	    100.79807330	     44.29820948	      0.00000000	      0.00000000	    -18.15871105	     -7.42687832	     11.65132698	     30.40095358	     44.04826746	      0.00000000	      0.00000000
     54.03714286	     -6.91361647	     -7.72525381	      1.29273590	      0.95329257	      0.90863988	      0.48839556	     -1.77783186	      6.10626216	    -16.97615904	      8.74801547	      8.74801547	     18.75672088	      7.24460347	     -2.38934424	     37.04606554	    -10.60548242	      1.36903542	     21.33141662	     21.33141662	      3.51951469	    -10.93304833	     12.17535582	     -9.45532137	      5.90145521	      5.35388689	     50.95781475	    -14.28114034	      4.15725402	    102.59156864	     44.23958384	      0.00000000	      0.00000000	    -19.43113684	     -7.26851765	     11.90805301	     30.38735192	     44.00699507	      0.00000000	      0.00000000
     54.04821429	     -6.92996474	     -7.60670151	      1.02273062	      0.95561967	      0.90700754	      0.48658622	     -2.13554563	      5.74970305	    -16.33719740	      9.48534396	      9.48534396	     19.93065604	      6.74633048	     -0.65481949	     36.55338972	    -10.47288706	      1.05249299	     21.57418466	     21.57418466	      1.08564496	    -12.74799837	      8.00306561	     -9.11171518	      5.78051506	      5.29858232	     52.19516630	    -14.34611884	      5.31595231	    104.04685738	     44.23023143	      0.00000000	      0.00000000	    -20.87075659	     -7.29053055	     12.50638763	     31.58150979	     44.00018119	      0.00000000	      0.00000000
     54.05928571	     -6.84315754	     -7.42804300	      0.81498640	      0.95772407	      0.90574408	      0.48467432	     -2.54861923	      5.29738213	    -15.95599583	     10.22830484	     10.22830484	     20.40611672	      6.39627085	     -0.74982561	     36.35731106	    -10.32991970	      0.67259445	     22.71711895	     22.71711895	      0.63765114	    -13.59574426	      7.75262727	     -8.96080155	      5.55073726	      5.27978603	     53.39307114	    -13.99538635	      5.33044190	    104.95596355	     44.21343259	      0.00000000	      0.00000000	    -21.56673822	     -7.20004390	     12.60521002	     31.27753172	     43.98897181	      0.00000000	      0.00000000
     54.07035714	     -6.88512837	     -7.22858631	      0.61477726	      0.95952796	      0.90449782	      0.48263607	     -2.47800924	      4.75555606	    -15.32824968	     11.58506046	     11.58506046	     20.97710473	      5.38280545	     -0.75861209	     36.30843313	    -10.11697690	      0.53167236	     23.87858389	     23.87858389	      0.16380749	    -14.59475135	      7.09278381	     -8.71744707	      5.30819437	      5.06291709	     54.30937220	    -13.56499296	      5.75380394	    106.36301164	     44.17497771	      0.00000000	      0.00000000	    -22.20714467	     -6.97605935	     12.69402004	     30.98292215	     43.99450567	      0.00000000	      0.00000000
     54.08142857	     -6.80145517	     -7.02847484	      0.46772687	      0.96123130	      0.90374414	      0.48047226	     -2.44968634	      4.20360101	    -14.70542501	     13.07083661	     13.07083661	     21.40791133	      4.29505827	     -0.82621438	     36.18297382	     -9.89981295	      0.44533602	     25.15733495	     25.15733495	      0.06088358	    -15.33906590	      6.44601748	     -8.66044276	      5.04800025	      4.93579590	     55.04706336	    -13.35923968	      6.07610383	    107.58086184	     44.14617866	      0.00000000	      0.00000000	    -22.52886989	     -6.78948366	     12.71396701	     30.67792814	     44.01645117	      0.00000000	      0.00000000
     54.09250000	     -6.66547313	     -6.84858103	      0.35909392	      0.96274377	      0.90344526	      0.47817380	     -2.30479348	      3.64173785	    -14.09478923	     14.82779293	     14.82779293	     21.60088829	      3.06672816	     -1.06110302	     35.99557898	     -9.68366383	      0.40235128	     26.41353804	     26.41353804	      0.35339176	    -15.84348037	      5.99020464	     -8.71097185	      4.84562833	      4.82642158	     55.55913484	    -13.24742994	      6.32441704	    108.81348402	     44.12304782	      0.00000000	      0.00000000	    -22.54593401	     -6.61010184	     12.69400578	     30.24899765	     44.05659992	      0.00000000	      0.00000000
     54.10357143	     -6.53726131	     -6.65443164	      0.28443539	      0.96401790	      0.90349224	      0.47572653	     -1.93045611	      3.01160554	    -13.57723024	     16.94780059	     16.94780059	     21.60272518	      1.79939711	     -1.62043906	     35.79500080	     -9.43484418	      0.36683031	     27.60757863	     27.60757863	      0.98997663	    -16.11487810	      5.78368005	     -8.80048618	      4.62241055	      4.65453559	     55.85440157	    -13.08890494	      6.49661738	    110.01349955	     44.10049528	      0.00000000	      0.00000000	    -22.34645245	     -6.42089215	     12.69271126	     29.76007814	     44.09360663	      0.00000000	      0.00000000
     54.11464286	     -6.41375256	     -6.47410038	      0.23695303	      0.96510434	      0.90395587	      0.47320959	     -1.39318857	      2.40497836	    -12.97500487	     19.25829037	     19.25829037	     21.04468430	      0.10964488	     -3.04291442	     35.53988150	     -9.17553483	      0.35102824	     28.67928907	     28.67928907	      2.09441196	    -16.14990762	      6.30340908	     -8.92656773	      4.43521730	      4.74210301	     55.80722687	    -13.30715166	      6.53554096	    111.63602809	     44.09481879	      0.00000000	      0.00000000	    -21.59628320	     -6.20407501	     12.64840912	     28.70429166	     44.18947930	      0.00000000	      0.00000000
     54.12571429	     -6.29168262	     -6.25820175	      0.20542770	      0.96599506	      0.90471767	      0.47056225	     -0.57123294	      1.62210890	    -12.76644496	     22.11175641	     22.11175641	     20.61349647	     -1.00439378	     -3.87315002	     35.12442101	     -8.88989439	      0.19441081	     29.41415662	     29.41415662	      2.96244237	    -16.08810580	      6.01139044	     -9.06415254	      4.22255495	      4.38407808	     55.76054172	    -12.98053740	      6.66801981	    112.43224172	     44.07615056	      0.00000000	      0.00000000	    -21.11436420	     -6.05361944	     12.69651324	     28.51241129	     44.20704807	      0.00000000	      0.00000000
     54.13678571	     -6.09675646	     -6.05128499	      0.17112626	      0.96680431	      0.90589916	      0.46789892	      0.31542587	      0.83929585	    -12.52258463	     25.16367153	     25.16367153	     19.86568622	     -2.29507678	     -4.71794904	     34.52582810	     -8.61147734	     -0.00226851	     29.96033987	     29.96033987	      3.86801496	    -15.99466526	      5.74115736	     -9.28727579	      4.06125659	      4.08217544	     55.38390735	    -12.76954762	      6.83351811	    113.17718521	     44.05369215	      0.00000000	      0.00000000	    -20.45280231	     -5.96804719	     12.73988633	     28.33991106	     44.22372591	      0.00000000	      0.00000000
     54.14785714	     -6.15807549	     -5.89211514	      0.14494982	      0.96721911	      0.90706801	      0.46537697	      1.60980798	      0.21394309	    -11.99208334	     28.12677156	     28.12677156	     17.09245511	     -5.12567266	     -9.87231840	     34.12156851	     -8.37983899	     -0.23117317	     30.30114709	     30.30114709	      5.21894939	    -15.50708293	      6.69002221	     -9.30015126	      3.91075456	      4.55396857	     54.21154886	    -13.57087374	      6.50625812	    115.45839694	     44.05814899	      0.00000000	      0.00000000	    -18.71264912	     -5.78914179	     13.02518093	     26.59657037	     44.31147190	      0.00000000	      0.00000000
     54.15892857	     -6.07593768	     -5.64699204	      0.10600269	      0.96760847	      0.90850217	      0.46281801	      3.05912629	     -0.68592668	    -11.86720061	     31.81436390	     31.81436390	     15.75459037	     -6.52784694	    -10.49019098	     33.40342896	     -8.08157473	     -0.61254649	     30.35288006	     30.35288006	      5.97140364	    -15.24128555	      6.30476444	     -9.40710981	      3.70231467	      4.12046841	     53.48430140	    -13.23238862	      6.79149365	    115.83037040	     44.04134894	      0.00000000	      0.00000000	    -17.91324489	     -5.79831888	     13.06098625	     26.73775348	     44.32828585	      0.00000000	      0.00000000
     54.17000000	     -6.13770168	     -5.48357365	      0.04825549	      0.96776172	      0.90989062	      0.46044381	      4.72436479	     -1.35436174	    -11.44223602	     35.27740139	     35.27740139	     12.56532609	     -9.61296616	    -14.52303187	     32.76509883	     -7.87681917	     -1.00067232	     30.21062377	     30.21062377	      6.59120800	    -14.88191029	      5.81624459	     -9.39851478	      3.59722303	      4.21730067	     52.10983125	    -13.59410459	      6.71179908	    117.21929960	     44.07029852	      0.00000000	      0.00000000	    -16.53383043	     -5.84762963	     13.45652701	     26.27675553	     44.38115807	      0.00000000	      0.00000000
     54.18107143	     -6.10346238	     -5.22584138	     -0.01537545	      0.96777498	      0.91142906	      0.45812545	      6.56135642	     -2.26450031	    -11.28240760	     39.30187293	     39.30187293	     10.59016368	    -11.26567720	    -14.53224042	     31.94167487	     -7.58137123	     -1.47268164	     29.93118332	     29.93118332	      7.17942265	    -14.54118294	      5.50014247	     -9.48521322	      3.40006013	      3.80738578	     50.96841328	    -13.37307976	      7.06301641	    117.42924248	     44.05337113	      0.00000000	      0.00000000	    -15.51778588	     -5.94637928	     13.46147205	     26.55128664	     44.40458796	      0.00000000	      0.00000000
